<?xml version="1.0" encoding="utf-8" standalone="no"?>
<!DOCTYPE svg PUBLIC "-//W3C//DTD SVG 1.1//EN"
  "http://www.w3.org/Graphics/SVG/1.1/DTD/svg11.dtd">
<!-- Created with matplotlib (https://matplotlib.org/) -->
<svg height="576pt" version="1.1" viewBox="0 0 864 576" width="864pt" xmlns="http://www.w3.org/2000/svg" xmlns:xlink="http://www.w3.org/1999/xlink">
 <metadata>
  <rdf:RDF xmlns:cc="http://creativecommons.org/ns#" xmlns:dc="http://purl.org/dc/elements/1.1/" xmlns:rdf="http://www.w3.org/1999/02/22-rdf-syntax-ns#">
   <cc:Work>
    <dc:type rdf:resource="http://purl.org/dc/dcmitype/StillImage"/>
    <dc:date>2022-04-14T23:44:35.571967</dc:date>
    <dc:format>image/svg+xml</dc:format>
    <dc:creator>
     <cc:Agent>
      <dc:title>Matplotlib v3.3.2, https://matplotlib.org/</dc:title>
     </cc:Agent>
    </dc:creator>
   </cc:Work>
  </rdf:RDF>
 </metadata>
 <defs>
  <style type="text/css">*{stroke-linecap:butt;stroke-linejoin:round;}</style>
 </defs>
 <g id="figure_1">
  <g id="patch_1">
   <path d="M 0 576 
L 864 576 
L 864 0 
L 0 0 
z
" style="fill:none;"/>
  </g>
  <g id="axes_1">
   <g id="patch_2">
    <path d="M 108 266.792727 
L 412.363636 266.792727 
L 412.363636 69.12 
L 108 69.12 
z
" style="fill:#ffffff;"/>
   </g>
   <g id="matplotlib.axis_1">
    <g id="xtick_1">
     <g id="line2d_1">
      <defs>
       <path d="M 0 0 
L 0 3.5 
" id="md6b1878a59" style="stroke:#000000;stroke-width:0.8;"/>
      </defs>
      <g>
       <use style="stroke:#000000;stroke-width:0.8;" x="121.834711" xlink:href="#md6b1878a59" y="266.792727"/>
      </g>
     </g>
     <g id="text_1">
      <!-- 0 -->
      <g transform="translate(118.653461 281.391165)scale(0.1 -0.1)">
       <defs>
        <path d="M 31.78125 66.40625 
Q 24.171875 66.40625 20.328125 58.90625 
Q 16.5 51.421875 16.5 36.375 
Q 16.5 21.390625 20.328125 13.890625 
Q 24.171875 6.390625 31.78125 6.390625 
Q 39.453125 6.390625 43.28125 13.890625 
Q 47.125 21.390625 47.125 36.375 
Q 47.125 51.421875 43.28125 58.90625 
Q 39.453125 66.40625 31.78125 66.40625 
z
M 31.78125 74.21875 
Q 44.046875 74.21875 50.515625 64.515625 
Q 56.984375 54.828125 56.984375 36.375 
Q 56.984375 17.96875 50.515625 8.265625 
Q 44.046875 -1.421875 31.78125 -1.421875 
Q 19.53125 -1.421875 13.0625 8.265625 
Q 6.59375 17.96875 6.59375 36.375 
Q 6.59375 54.828125 13.0625 64.515625 
Q 19.53125 74.21875 31.78125 74.21875 
z
" id="DejaVuSans-48"/>
       </defs>
       <use xlink:href="#DejaVuSans-48"/>
      </g>
     </g>
    </g>
    <g id="xtick_2">
     <g id="line2d_2">
      <g>
       <use style="stroke:#000000;stroke-width:0.8;" x="176.422933" xlink:href="#md6b1878a59" y="266.792727"/>
      </g>
     </g>
     <g id="text_2">
      <!-- 2 -->
      <g transform="translate(173.241683 281.391165)scale(0.1 -0.1)">
       <defs>
        <path d="M 19.1875 8.296875 
L 53.609375 8.296875 
L 53.609375 0 
L 7.328125 0 
L 7.328125 8.296875 
Q 12.9375 14.109375 22.625 23.890625 
Q 32.328125 33.6875 34.8125 36.53125 
Q 39.546875 41.84375 41.421875 45.53125 
Q 43.3125 49.21875 43.3125 52.78125 
Q 43.3125 58.59375 39.234375 62.25 
Q 35.15625 65.921875 28.609375 65.921875 
Q 23.96875 65.921875 18.8125 64.3125 
Q 13.671875 62.703125 7.8125 59.421875 
L 7.8125 69.390625 
Q 13.765625 71.78125 18.9375 73 
Q 24.125 74.21875 28.421875 74.21875 
Q 39.75 74.21875 46.484375 68.546875 
Q 53.21875 62.890625 53.21875 53.421875 
Q 53.21875 48.921875 51.53125 44.890625 
Q 49.859375 40.875 45.40625 35.40625 
Q 44.1875 33.984375 37.640625 27.21875 
Q 31.109375 20.453125 19.1875 8.296875 
z
" id="DejaVuSans-50"/>
       </defs>
       <use xlink:href="#DejaVuSans-50"/>
      </g>
     </g>
    </g>
    <g id="xtick_3">
     <g id="line2d_3">
      <g>
       <use style="stroke:#000000;stroke-width:0.8;" x="231.011155" xlink:href="#md6b1878a59" y="266.792727"/>
      </g>
     </g>
     <g id="text_3">
      <!-- 4 -->
      <g transform="translate(227.829905 281.391165)scale(0.1 -0.1)">
       <defs>
        <path d="M 37.796875 64.3125 
L 12.890625 25.390625 
L 37.796875 25.390625 
z
M 35.203125 72.90625 
L 47.609375 72.90625 
L 47.609375 25.390625 
L 58.015625 25.390625 
L 58.015625 17.1875 
L 47.609375 17.1875 
L 47.609375 0 
L 37.796875 0 
L 37.796875 17.1875 
L 4.890625 17.1875 
L 4.890625 26.703125 
z
" id="DejaVuSans-52"/>
       </defs>
       <use xlink:href="#DejaVuSans-52"/>
      </g>
     </g>
    </g>
    <g id="xtick_4">
     <g id="line2d_4">
      <g>
       <use style="stroke:#000000;stroke-width:0.8;" x="285.599377" xlink:href="#md6b1878a59" y="266.792727"/>
      </g>
     </g>
     <g id="text_4">
      <!-- 6 -->
      <g transform="translate(282.418127 281.391165)scale(0.1 -0.1)">
       <defs>
        <path d="M 33.015625 40.375 
Q 26.375 40.375 22.484375 35.828125 
Q 18.609375 31.296875 18.609375 23.390625 
Q 18.609375 15.53125 22.484375 10.953125 
Q 26.375 6.390625 33.015625 6.390625 
Q 39.65625 6.390625 43.53125 10.953125 
Q 47.40625 15.53125 47.40625 23.390625 
Q 47.40625 31.296875 43.53125 35.828125 
Q 39.65625 40.375 33.015625 40.375 
z
M 52.59375 71.296875 
L 52.59375 62.3125 
Q 48.875 64.0625 45.09375 64.984375 
Q 41.3125 65.921875 37.59375 65.921875 
Q 27.828125 65.921875 22.671875 59.328125 
Q 17.53125 52.734375 16.796875 39.40625 
Q 19.671875 43.65625 24.015625 45.921875 
Q 28.375 48.1875 33.59375 48.1875 
Q 44.578125 48.1875 50.953125 41.515625 
Q 57.328125 34.859375 57.328125 23.390625 
Q 57.328125 12.15625 50.6875 5.359375 
Q 44.046875 -1.421875 33.015625 -1.421875 
Q 20.359375 -1.421875 13.671875 8.265625 
Q 6.984375 17.96875 6.984375 36.375 
Q 6.984375 53.65625 15.1875 63.9375 
Q 23.390625 74.21875 37.203125 74.21875 
Q 40.921875 74.21875 44.703125 73.484375 
Q 48.484375 72.75 52.59375 71.296875 
z
" id="DejaVuSans-54"/>
       </defs>
       <use xlink:href="#DejaVuSans-54"/>
      </g>
     </g>
    </g>
    <g id="xtick_5">
     <g id="line2d_5">
      <g>
       <use style="stroke:#000000;stroke-width:0.8;" x="340.187599" xlink:href="#md6b1878a59" y="266.792727"/>
      </g>
     </g>
     <g id="text_5">
      <!-- 8 -->
      <g transform="translate(337.006349 281.391165)scale(0.1 -0.1)">
       <defs>
        <path d="M 31.78125 34.625 
Q 24.75 34.625 20.71875 30.859375 
Q 16.703125 27.09375 16.703125 20.515625 
Q 16.703125 13.921875 20.71875 10.15625 
Q 24.75 6.390625 31.78125 6.390625 
Q 38.8125 6.390625 42.859375 10.171875 
Q 46.921875 13.96875 46.921875 20.515625 
Q 46.921875 27.09375 42.890625 30.859375 
Q 38.875 34.625 31.78125 34.625 
z
M 21.921875 38.8125 
Q 15.578125 40.375 12.03125 44.71875 
Q 8.5 49.078125 8.5 55.328125 
Q 8.5 64.0625 14.71875 69.140625 
Q 20.953125 74.21875 31.78125 74.21875 
Q 42.671875 74.21875 48.875 69.140625 
Q 55.078125 64.0625 55.078125 55.328125 
Q 55.078125 49.078125 51.53125 44.71875 
Q 48 40.375 41.703125 38.8125 
Q 48.828125 37.15625 52.796875 32.3125 
Q 56.78125 27.484375 56.78125 20.515625 
Q 56.78125 9.90625 50.3125 4.234375 
Q 43.84375 -1.421875 31.78125 -1.421875 
Q 19.734375 -1.421875 13.25 4.234375 
Q 6.78125 9.90625 6.78125 20.515625 
Q 6.78125 27.484375 10.78125 32.3125 
Q 14.796875 37.15625 21.921875 38.8125 
z
M 18.3125 54.390625 
Q 18.3125 48.734375 21.84375 45.5625 
Q 25.390625 42.390625 31.78125 42.390625 
Q 38.140625 42.390625 41.71875 45.5625 
Q 45.3125 48.734375 45.3125 54.390625 
Q 45.3125 60.0625 41.71875 63.234375 
Q 38.140625 66.40625 31.78125 66.40625 
Q 25.390625 66.40625 21.84375 63.234375 
Q 18.3125 60.0625 18.3125 54.390625 
z
" id="DejaVuSans-56"/>
       </defs>
       <use xlink:href="#DejaVuSans-56"/>
      </g>
     </g>
    </g>
    <g id="xtick_6">
     <g id="line2d_6">
      <g>
       <use style="stroke:#000000;stroke-width:0.8;" x="394.775821" xlink:href="#md6b1878a59" y="266.792727"/>
      </g>
     </g>
     <g id="text_6">
      <!-- 10 -->
      <g transform="translate(388.413321 281.391165)scale(0.1 -0.1)">
       <defs>
        <path d="M 12.40625 8.296875 
L 28.515625 8.296875 
L 28.515625 63.921875 
L 10.984375 60.40625 
L 10.984375 69.390625 
L 28.421875 72.90625 
L 38.28125 72.90625 
L 38.28125 8.296875 
L 54.390625 8.296875 
L 54.390625 0 
L 12.40625 0 
z
" id="DejaVuSans-49"/>
       </defs>
       <use xlink:href="#DejaVuSans-49"/>
       <use x="63.623047" xlink:href="#DejaVuSans-48"/>
      </g>
     </g>
    </g>
    <g id="text_7">
     <!-- t -->
     <g transform="translate(258.221662 295.06929)scale(0.1 -0.1)">
      <defs>
       <path d="M 18.3125 70.21875 
L 18.3125 54.6875 
L 36.8125 54.6875 
L 36.8125 47.703125 
L 18.3125 47.703125 
L 18.3125 18.015625 
Q 18.3125 11.328125 20.140625 9.421875 
Q 21.96875 7.515625 27.59375 7.515625 
L 36.8125 7.515625 
L 36.8125 0 
L 27.59375 0 
Q 17.1875 0 13.234375 3.875 
Q 9.28125 7.765625 9.28125 18.015625 
L 9.28125 47.703125 
L 2.6875 47.703125 
L 2.6875 54.6875 
L 9.28125 54.6875 
L 9.28125 70.21875 
z
" id="DejaVuSans-116"/>
      </defs>
      <use xlink:href="#DejaVuSans-116"/>
     </g>
    </g>
   </g>
   <g id="matplotlib.axis_2">
    <g id="ytick_1">
     <g id="line2d_7">
      <defs>
       <path d="M 0 0 
L -3.5 0 
" id="m564167a2bf" style="stroke:#000000;stroke-width:0.8;"/>
      </defs>
      <g>
       <use style="stroke:#000000;stroke-width:0.8;" x="108" xlink:href="#m564167a2bf" y="233.73366"/>
      </g>
     </g>
     <g id="text_8">
      <!-- −60 -->
      <g transform="translate(79.895313 237.532879)scale(0.1 -0.1)">
       <defs>
        <path d="M 10.59375 35.5 
L 73.1875 35.5 
L 73.1875 27.203125 
L 10.59375 27.203125 
z
" id="DejaVuSans-8722"/>
       </defs>
       <use xlink:href="#DejaVuSans-8722"/>
       <use x="83.789062" xlink:href="#DejaVuSans-54"/>
       <use x="147.412109" xlink:href="#DejaVuSans-48"/>
      </g>
     </g>
    </g>
    <g id="ytick_2">
     <g id="line2d_8">
      <g>
       <use style="stroke:#000000;stroke-width:0.8;" x="108" xlink:href="#m564167a2bf" y="194.469459"/>
      </g>
     </g>
     <g id="text_9">
      <!-- −40 -->
      <g transform="translate(79.895313 198.268678)scale(0.1 -0.1)">
       <use xlink:href="#DejaVuSans-8722"/>
       <use x="83.789062" xlink:href="#DejaVuSans-52"/>
       <use x="147.412109" xlink:href="#DejaVuSans-48"/>
      </g>
     </g>
    </g>
    <g id="ytick_3">
     <g id="line2d_9">
      <g>
       <use style="stroke:#000000;stroke-width:0.8;" x="108" xlink:href="#m564167a2bf" y="155.205258"/>
      </g>
     </g>
     <g id="text_10">
      <!-- −20 -->
      <g transform="translate(79.895313 159.004476)scale(0.1 -0.1)">
       <use xlink:href="#DejaVuSans-8722"/>
       <use x="83.789062" xlink:href="#DejaVuSans-50"/>
       <use x="147.412109" xlink:href="#DejaVuSans-48"/>
      </g>
     </g>
    </g>
    <g id="ytick_4">
     <g id="line2d_10">
      <g>
       <use style="stroke:#000000;stroke-width:0.8;" x="108" xlink:href="#m564167a2bf" y="115.941056"/>
      </g>
     </g>
     <g id="text_11">
      <!-- 0 -->
      <g transform="translate(94.6375 119.740275)scale(0.1 -0.1)">
       <use xlink:href="#DejaVuSans-48"/>
      </g>
     </g>
    </g>
    <g id="ytick_5">
     <g id="line2d_11">
      <g>
       <use style="stroke:#000000;stroke-width:0.8;" x="108" xlink:href="#m564167a2bf" y="76.676855"/>
      </g>
     </g>
     <g id="text_12">
      <!-- 20 -->
      <g transform="translate(88.275 80.476074)scale(0.1 -0.1)">
       <use xlink:href="#DejaVuSans-50"/>
       <use x="63.623047" xlink:href="#DejaVuSans-48"/>
      </g>
     </g>
    </g>
    <g id="text_13">
     <!-- V -->
     <g transform="translate(73.815625 171.376676)rotate(-90)scale(0.1 -0.1)">
      <defs>
       <path d="M 28.609375 0 
L 0.78125 72.90625 
L 11.078125 72.90625 
L 34.1875 11.53125 
L 57.328125 72.90625 
L 67.578125 72.90625 
L 39.796875 0 
z
" id="DejaVuSans-86"/>
      </defs>
      <use xlink:href="#DejaVuSans-86"/>
     </g>
    </g>
   </g>
   <g id="line2d_12">
    <path clip-path="url(#pe371ffd9df)" d="M 121.834711 115.941054 
L 123.456362 99.632428 
L 124.537463 90.870773 
L 125.415857 85.456149 
L 126.159114 82.123001 
L 126.834802 80.033673 
L 127.442921 78.845498 
L 127.983471 78.275598 
L 128.456453 78.106463 
L 128.929434 78.206902 
L 129.402416 78.543184 
L 130.010535 79.273207 
L 130.753792 80.544296 
L 131.699755 82.639661 
L 132.915993 85.91988 
L 134.537644 90.995946 
L 136.834983 99.003464 
L 141.159386 115.074415 
L 146.835165 135.927982 
L 151.02443 150.45576 
L 155.348833 164.630605 
L 167.84906 204.943488 
L 170.619381 215.190672 
L 174.60594 230.966797 
L 177.038416 240.116208 
L 178.592498 245.148957 
L 179.876306 248.619375 
L 181.092544 251.279218 
L 182.173645 253.14489 
L 183.254745 254.587491 
L 184.335846 255.668511 
L 185.484515 256.494584 
L 186.700754 257.08743 
L 188.05213 257.494362 
L 189.673781 257.738912 
L 191.700845 257.805197 
L 194.471165 257.653009 
L 198.592862 257.181948 
L 205.484879 256.147 
L 216.025611 254.329619 
L 228.3907 251.969738 
L 242.309872 249.080105 
L 259.675052 245.234127 
L 332.176369 228.698518 
L 342.581963 226.095594 
L 350.014531 224.016304 
L 355.757878 222.188682 
L 360.487694 220.45551 
L 364.406684 218.787433 
L 367.717555 217.143728 
L 370.623013 215.455117 
L 373.123059 213.751533 
L 375.352829 211.97053 
L 377.379893 210.069145 
L 379.20425 208.057869 
L 380.89347 205.867414 
L 382.447552 203.494191 
L 383.934066 200.813379 
L 385.353011 197.776375 
L 386.704387 194.331138 
L 387.988194 190.424966 
L 389.204432 186.009285 
L 390.42067 180.727544 
L 391.636909 174.381364 
L 392.853147 166.753879 
L 394.069385 157.646227 
L 395.353192 146.317666 
L 396.907275 130.526982 
L 398.528926 113.028766 
L 398.528926 113.028766 
" style="fill:none;stroke:#1f77b4;stroke-linecap:square;stroke-width:1.5;"/>
   </g>
   <g id="patch_3">
    <path d="M 108 266.792727 
L 108 69.12 
" style="fill:none;stroke:#000000;stroke-linecap:square;stroke-linejoin:miter;stroke-width:0.8;"/>
   </g>
   <g id="patch_4">
    <path d="M 412.363636 266.792727 
L 412.363636 69.12 
" style="fill:none;stroke:#000000;stroke-linecap:square;stroke-linejoin:miter;stroke-width:0.8;"/>
   </g>
   <g id="patch_5">
    <path d="M 108 266.792727 
L 412.363636 266.792727 
" style="fill:none;stroke:#000000;stroke-linecap:square;stroke-linejoin:miter;stroke-width:0.8;"/>
   </g>
   <g id="patch_6">
    <path d="M 108 69.12 
L 412.363636 69.12 
" style="fill:none;stroke:#000000;stroke-linecap:square;stroke-linejoin:miter;stroke-width:0.8;"/>
   </g>
   <g id="text_14">
    <!-- periodic orbit -->
    <g transform="translate(220.228381 63.12)scale(0.12 -0.12)">
     <defs>
      <path d="M 18.109375 8.203125 
L 18.109375 -20.796875 
L 9.078125 -20.796875 
L 9.078125 54.6875 
L 18.109375 54.6875 
L 18.109375 46.390625 
Q 20.953125 51.265625 25.265625 53.625 
Q 29.59375 56 35.59375 56 
Q 45.5625 56 51.78125 48.09375 
Q 58.015625 40.1875 58.015625 27.296875 
Q 58.015625 14.40625 51.78125 6.484375 
Q 45.5625 -1.421875 35.59375 -1.421875 
Q 29.59375 -1.421875 25.265625 0.953125 
Q 20.953125 3.328125 18.109375 8.203125 
z
M 48.6875 27.296875 
Q 48.6875 37.203125 44.609375 42.84375 
Q 40.53125 48.484375 33.40625 48.484375 
Q 26.265625 48.484375 22.1875 42.84375 
Q 18.109375 37.203125 18.109375 27.296875 
Q 18.109375 17.390625 22.1875 11.75 
Q 26.265625 6.109375 33.40625 6.109375 
Q 40.53125 6.109375 44.609375 11.75 
Q 48.6875 17.390625 48.6875 27.296875 
z
" id="DejaVuSans-112"/>
      <path d="M 56.203125 29.59375 
L 56.203125 25.203125 
L 14.890625 25.203125 
Q 15.484375 15.921875 20.484375 11.0625 
Q 25.484375 6.203125 34.421875 6.203125 
Q 39.59375 6.203125 44.453125 7.46875 
Q 49.3125 8.734375 54.109375 11.28125 
L 54.109375 2.78125 
Q 49.265625 0.734375 44.1875 -0.34375 
Q 39.109375 -1.421875 33.890625 -1.421875 
Q 20.796875 -1.421875 13.15625 6.1875 
Q 5.515625 13.8125 5.515625 26.8125 
Q 5.515625 40.234375 12.765625 48.109375 
Q 20.015625 56 32.328125 56 
Q 43.359375 56 49.78125 48.890625 
Q 56.203125 41.796875 56.203125 29.59375 
z
M 47.21875 32.234375 
Q 47.125 39.59375 43.09375 43.984375 
Q 39.0625 48.390625 32.421875 48.390625 
Q 24.90625 48.390625 20.390625 44.140625 
Q 15.875 39.890625 15.1875 32.171875 
z
" id="DejaVuSans-101"/>
      <path d="M 41.109375 46.296875 
Q 39.59375 47.171875 37.8125 47.578125 
Q 36.03125 48 33.890625 48 
Q 26.265625 48 22.1875 43.046875 
Q 18.109375 38.09375 18.109375 28.8125 
L 18.109375 0 
L 9.078125 0 
L 9.078125 54.6875 
L 18.109375 54.6875 
L 18.109375 46.1875 
Q 20.953125 51.171875 25.484375 53.578125 
Q 30.03125 56 36.53125 56 
Q 37.453125 56 38.578125 55.875 
Q 39.703125 55.765625 41.0625 55.515625 
z
" id="DejaVuSans-114"/>
      <path d="M 9.421875 54.6875 
L 18.40625 54.6875 
L 18.40625 0 
L 9.421875 0 
z
M 9.421875 75.984375 
L 18.40625 75.984375 
L 18.40625 64.59375 
L 9.421875 64.59375 
z
" id="DejaVuSans-105"/>
      <path d="M 30.609375 48.390625 
Q 23.390625 48.390625 19.1875 42.75 
Q 14.984375 37.109375 14.984375 27.296875 
Q 14.984375 17.484375 19.15625 11.84375 
Q 23.34375 6.203125 30.609375 6.203125 
Q 37.796875 6.203125 41.984375 11.859375 
Q 46.1875 17.53125 46.1875 27.296875 
Q 46.1875 37.015625 41.984375 42.703125 
Q 37.796875 48.390625 30.609375 48.390625 
z
M 30.609375 56 
Q 42.328125 56 49.015625 48.375 
Q 55.71875 40.765625 55.71875 27.296875 
Q 55.71875 13.875 49.015625 6.21875 
Q 42.328125 -1.421875 30.609375 -1.421875 
Q 18.84375 -1.421875 12.171875 6.21875 
Q 5.515625 13.875 5.515625 27.296875 
Q 5.515625 40.765625 12.171875 48.375 
Q 18.84375 56 30.609375 56 
z
" id="DejaVuSans-111"/>
      <path d="M 45.40625 46.390625 
L 45.40625 75.984375 
L 54.390625 75.984375 
L 54.390625 0 
L 45.40625 0 
L 45.40625 8.203125 
Q 42.578125 3.328125 38.25 0.953125 
Q 33.9375 -1.421875 27.875 -1.421875 
Q 17.96875 -1.421875 11.734375 6.484375 
Q 5.515625 14.40625 5.515625 27.296875 
Q 5.515625 40.1875 11.734375 48.09375 
Q 17.96875 56 27.875 56 
Q 33.9375 56 38.25 53.625 
Q 42.578125 51.265625 45.40625 46.390625 
z
M 14.796875 27.296875 
Q 14.796875 17.390625 18.875 11.75 
Q 22.953125 6.109375 30.078125 6.109375 
Q 37.203125 6.109375 41.296875 11.75 
Q 45.40625 17.390625 45.40625 27.296875 
Q 45.40625 37.203125 41.296875 42.84375 
Q 37.203125 48.484375 30.078125 48.484375 
Q 22.953125 48.484375 18.875 42.84375 
Q 14.796875 37.203125 14.796875 27.296875 
z
" id="DejaVuSans-100"/>
      <path d="M 48.78125 52.59375 
L 48.78125 44.1875 
Q 44.96875 46.296875 41.140625 47.34375 
Q 37.3125 48.390625 33.40625 48.390625 
Q 24.65625 48.390625 19.8125 42.84375 
Q 14.984375 37.3125 14.984375 27.296875 
Q 14.984375 17.28125 19.8125 11.734375 
Q 24.65625 6.203125 33.40625 6.203125 
Q 37.3125 6.203125 41.140625 7.25 
Q 44.96875 8.296875 48.78125 10.40625 
L 48.78125 2.09375 
Q 45.015625 0.34375 40.984375 -0.53125 
Q 36.96875 -1.421875 32.421875 -1.421875 
Q 20.0625 -1.421875 12.78125 6.34375 
Q 5.515625 14.109375 5.515625 27.296875 
Q 5.515625 40.671875 12.859375 48.328125 
Q 20.21875 56 33.015625 56 
Q 37.15625 56 41.109375 55.140625 
Q 45.0625 54.296875 48.78125 52.59375 
z
" id="DejaVuSans-99"/>
      <path id="DejaVuSans-32"/>
      <path d="M 48.6875 27.296875 
Q 48.6875 37.203125 44.609375 42.84375 
Q 40.53125 48.484375 33.40625 48.484375 
Q 26.265625 48.484375 22.1875 42.84375 
Q 18.109375 37.203125 18.109375 27.296875 
Q 18.109375 17.390625 22.1875 11.75 
Q 26.265625 6.109375 33.40625 6.109375 
Q 40.53125 6.109375 44.609375 11.75 
Q 48.6875 17.390625 48.6875 27.296875 
z
M 18.109375 46.390625 
Q 20.953125 51.265625 25.265625 53.625 
Q 29.59375 56 35.59375 56 
Q 45.5625 56 51.78125 48.09375 
Q 58.015625 40.1875 58.015625 27.296875 
Q 58.015625 14.40625 51.78125 6.484375 
Q 45.5625 -1.421875 35.59375 -1.421875 
Q 29.59375 -1.421875 25.265625 0.953125 
Q 20.953125 3.328125 18.109375 8.203125 
L 18.109375 0 
L 9.078125 0 
L 9.078125 75.984375 
L 18.109375 75.984375 
z
" id="DejaVuSans-98"/>
     </defs>
     <use xlink:href="#DejaVuSans-112"/>
     <use x="63.476562" xlink:href="#DejaVuSans-101"/>
     <use x="125" xlink:href="#DejaVuSans-114"/>
     <use x="166.113281" xlink:href="#DejaVuSans-105"/>
     <use x="193.896484" xlink:href="#DejaVuSans-111"/>
     <use x="255.078125" xlink:href="#DejaVuSans-100"/>
     <use x="318.554688" xlink:href="#DejaVuSans-105"/>
     <use x="346.337891" xlink:href="#DejaVuSans-99"/>
     <use x="401.318359" xlink:href="#DejaVuSans-32"/>
     <use x="433.105469" xlink:href="#DejaVuSans-111"/>
     <use x="494.287109" xlink:href="#DejaVuSans-114"/>
     <use x="535.400391" xlink:href="#DejaVuSans-98"/>
     <use x="598.876953" xlink:href="#DejaVuSans-105"/>
     <use x="626.660156" xlink:href="#DejaVuSans-116"/>
    </g>
   </g>
  </g>
  <g id="axes_2">
   <g id="patch_7">
    <path d="M 473.236364 266.792727 
L 777.6 266.792727 
L 777.6 69.12 
L 473.236364 69.12 
z
" style="fill:#ffffff;"/>
   </g>
   <g id="matplotlib.axis_3">
    <g id="xtick_7">
     <g id="line2d_13">
      <g>
       <use style="stroke:#000000;stroke-width:0.8;" x="487.071074" xlink:href="#md6b1878a59" y="266.792727"/>
      </g>
     </g>
     <g id="text_15">
      <!-- 0 -->
      <g transform="translate(483.889824 281.391165)scale(0.1 -0.1)">
       <use xlink:href="#DejaVuSans-48"/>
      </g>
     </g>
    </g>
    <g id="xtick_8">
     <g id="line2d_14">
      <g>
       <use style="stroke:#000000;stroke-width:0.8;" x="541.659296" xlink:href="#md6b1878a59" y="266.792727"/>
      </g>
     </g>
     <g id="text_16">
      <!-- 2 -->
      <g transform="translate(538.478046 281.391165)scale(0.1 -0.1)">
       <use xlink:href="#DejaVuSans-50"/>
      </g>
     </g>
    </g>
    <g id="xtick_9">
     <g id="line2d_15">
      <g>
       <use style="stroke:#000000;stroke-width:0.8;" x="596.247519" xlink:href="#md6b1878a59" y="266.792727"/>
      </g>
     </g>
     <g id="text_17">
      <!-- 4 -->
      <g transform="translate(593.066269 281.391165)scale(0.1 -0.1)">
       <use xlink:href="#DejaVuSans-52"/>
      </g>
     </g>
    </g>
    <g id="xtick_10">
     <g id="line2d_16">
      <g>
       <use style="stroke:#000000;stroke-width:0.8;" x="650.835741" xlink:href="#md6b1878a59" y="266.792727"/>
      </g>
     </g>
     <g id="text_18">
      <!-- 6 -->
      <g transform="translate(647.654491 281.391165)scale(0.1 -0.1)">
       <use xlink:href="#DejaVuSans-54"/>
      </g>
     </g>
    </g>
    <g id="xtick_11">
     <g id="line2d_17">
      <g>
       <use style="stroke:#000000;stroke-width:0.8;" x="705.423963" xlink:href="#md6b1878a59" y="266.792727"/>
      </g>
     </g>
     <g id="text_19">
      <!-- 8 -->
      <g transform="translate(702.242713 281.391165)scale(0.1 -0.1)">
       <use xlink:href="#DejaVuSans-56"/>
      </g>
     </g>
    </g>
    <g id="xtick_12">
     <g id="line2d_18">
      <g>
       <use style="stroke:#000000;stroke-width:0.8;" x="760.012185" xlink:href="#md6b1878a59" y="266.792727"/>
      </g>
     </g>
     <g id="text_20">
      <!-- 10 -->
      <g transform="translate(753.649685 281.391165)scale(0.1 -0.1)">
       <use xlink:href="#DejaVuSans-49"/>
       <use x="63.623047" xlink:href="#DejaVuSans-48"/>
      </g>
     </g>
    </g>
    <g id="text_21">
     <!-- t -->
     <g transform="translate(623.458026 295.06929)scale(0.1 -0.1)">
      <use xlink:href="#DejaVuSans-116"/>
     </g>
    </g>
   </g>
   <g id="matplotlib.axis_4">
    <g id="ytick_6">
     <g id="line2d_19">
      <g>
       <use style="stroke:#000000;stroke-width:0.8;" x="473.236364" xlink:href="#m564167a2bf" y="266.719895"/>
      </g>
     </g>
     <g id="text_22">
      <!-- −0.04 -->
      <g transform="translate(435.591051 270.519113)scale(0.1 -0.1)">
       <defs>
        <path d="M 10.6875 12.40625 
L 21 12.40625 
L 21 0 
L 10.6875 0 
z
" id="DejaVuSans-46"/>
       </defs>
       <use xlink:href="#DejaVuSans-8722"/>
       <use x="83.789062" xlink:href="#DejaVuSans-48"/>
       <use x="147.412109" xlink:href="#DejaVuSans-46"/>
       <use x="179.199219" xlink:href="#DejaVuSans-48"/>
       <use x="242.822266" xlink:href="#DejaVuSans-52"/>
      </g>
     </g>
    </g>
    <g id="ytick_7">
     <g id="line2d_20">
      <g>
       <use style="stroke:#000000;stroke-width:0.8;" x="473.236364" xlink:href="#m564167a2bf" y="236.582657"/>
      </g>
     </g>
     <g id="text_23">
      <!-- −0.02 -->
      <g transform="translate(435.591051 240.381875)scale(0.1 -0.1)">
       <use xlink:href="#DejaVuSans-8722"/>
       <use x="83.789062" xlink:href="#DejaVuSans-48"/>
       <use x="147.412109" xlink:href="#DejaVuSans-46"/>
       <use x="179.199219" xlink:href="#DejaVuSans-48"/>
       <use x="242.822266" xlink:href="#DejaVuSans-50"/>
      </g>
     </g>
    </g>
    <g id="ytick_8">
     <g id="line2d_21">
      <g>
       <use style="stroke:#000000;stroke-width:0.8;" x="473.236364" xlink:href="#m564167a2bf" y="206.445419"/>
      </g>
     </g>
     <g id="text_24">
      <!-- 0.00 -->
      <g transform="translate(443.970739 210.244638)scale(0.1 -0.1)">
       <use xlink:href="#DejaVuSans-48"/>
       <use x="63.623047" xlink:href="#DejaVuSans-46"/>
       <use x="95.410156" xlink:href="#DejaVuSans-48"/>
       <use x="159.033203" xlink:href="#DejaVuSans-48"/>
      </g>
     </g>
    </g>
    <g id="ytick_9">
     <g id="line2d_22">
      <g>
       <use style="stroke:#000000;stroke-width:0.8;" x="473.236364" xlink:href="#m564167a2bf" y="176.308181"/>
      </g>
     </g>
     <g id="text_25">
      <!-- 0.02 -->
      <g transform="translate(443.970739 180.1074)scale(0.1 -0.1)">
       <use xlink:href="#DejaVuSans-48"/>
       <use x="63.623047" xlink:href="#DejaVuSans-46"/>
       <use x="95.410156" xlink:href="#DejaVuSans-48"/>
       <use x="159.033203" xlink:href="#DejaVuSans-50"/>
      </g>
     </g>
    </g>
    <g id="ytick_10">
     <g id="line2d_23">
      <g>
       <use style="stroke:#000000;stroke-width:0.8;" x="473.236364" xlink:href="#m564167a2bf" y="146.170943"/>
      </g>
     </g>
     <g id="text_26">
      <!-- 0.04 -->
      <g transform="translate(443.970739 149.970162)scale(0.1 -0.1)">
       <use xlink:href="#DejaVuSans-48"/>
       <use x="63.623047" xlink:href="#DejaVuSans-46"/>
       <use x="95.410156" xlink:href="#DejaVuSans-48"/>
       <use x="159.033203" xlink:href="#DejaVuSans-52"/>
      </g>
     </g>
    </g>
    <g id="ytick_11">
     <g id="line2d_24">
      <g>
       <use style="stroke:#000000;stroke-width:0.8;" x="473.236364" xlink:href="#m564167a2bf" y="116.033705"/>
      </g>
     </g>
     <g id="text_27">
      <!-- 0.06 -->
      <g transform="translate(443.970739 119.832924)scale(0.1 -0.1)">
       <use xlink:href="#DejaVuSans-48"/>
       <use x="63.623047" xlink:href="#DejaVuSans-46"/>
       <use x="95.410156" xlink:href="#DejaVuSans-48"/>
       <use x="159.033203" xlink:href="#DejaVuSans-54"/>
      </g>
     </g>
    </g>
    <g id="ytick_12">
     <g id="line2d_25">
      <g>
       <use style="stroke:#000000;stroke-width:0.8;" x="473.236364" xlink:href="#m564167a2bf" y="85.896467"/>
      </g>
     </g>
     <g id="text_28">
      <!-- 0.08 -->
      <g transform="translate(443.970739 89.695686)scale(0.1 -0.1)">
       <use xlink:href="#DejaVuSans-48"/>
       <use x="63.623047" xlink:href="#DejaVuSans-46"/>
       <use x="95.410156" xlink:href="#DejaVuSans-48"/>
       <use x="159.033203" xlink:href="#DejaVuSans-56"/>
      </g>
     </g>
    </g>
    <g id="text_29">
     <!-- $Z_V$ -->
     <g transform="translate(429.511364 173.956364)rotate(-90)scale(0.1 -0.1)">
      <defs>
       <path d="M 13.09375 72.90625 
L 70.3125 72.90625 
L 68.890625 65.375 
L 12.40625 8.296875 
L 58.890625 8.296875 
L 57.328125 0 
L -2.203125 0 
L -0.78125 7.515625 
L 55.71875 64.59375 
L 11.53125 64.59375 
z
" id="DejaVuSans-Oblique-90"/>
       <path d="M 20.609375 0 
L 7.8125 72.90625 
L 17.484375 72.90625 
L 28.078125 10.203125 
L 63.484375 72.90625 
L 74.21875 72.90625 
L 32.078125 0 
z
" id="DejaVuSans-Oblique-86"/>
      </defs>
      <use transform="translate(0 0.09375)" xlink:href="#DejaVuSans-Oblique-90"/>
      <use transform="translate(68.505859 -16.3125)scale(0.7)" xlink:href="#DejaVuSans-Oblique-86"/>
     </g>
    </g>
   </g>
   <g id="line2d_26">
    <path clip-path="url(#pc325a50cae)" d="M 487.071074 206.173766 
L 489.841395 206.301214 
L 496.733412 206.332413 
L 506.9363 206.418324 
L 510.720153 206.683226 
L 513.760748 207.114404 
L 516.666207 207.755693 
L 519.909509 208.711993 
L 525.720425 210.468156 
L 527.950195 210.865713 
L 529.977259 211.002529 
L 532.139461 210.917755 
L 534.842212 210.569519 
L 540.788266 209.73581 
L 543.491018 209.64045 
L 546.666751 209.764453 
L 552.410099 210.253688 
L 561.464318 211.238038 
L 569.032023 212.279701 
L 575.518627 213.391158 
L 581.194406 214.582418 
L 586.262065 215.868785 
L 590.789174 217.241692 
L 594.97844 218.74283 
L 598.829861 220.356221 
L 602.478576 222.123984 
L 605.992153 224.074697 
L 609.370593 226.20254 
L 612.749033 228.593121 
L 616.195041 231.308212 
L 619.776187 234.416287 
L 623.762746 238.177871 
L 629.235819 243.682991 
L 635.587285 250.016374 
L 638.627881 252.736149 
L 641.060358 254.625446 
L 643.087422 255.934145 
L 644.911779 256.855353 
L 646.53343 257.433745 
L 648.019944 257.737315 
L 649.438888 257.801862 
L 650.790264 257.63922 
L 652.074071 257.265581 
L 653.357878 256.663208 
L 654.641686 255.817733 
L 655.993061 254.650194 
L 657.344437 253.183539 
L 658.763382 251.307154 
L 660.249896 248.95759 
L 661.803978 246.068033 
L 663.425629 242.569737 
L 665.114849 238.394046 
L 666.939206 233.274227 
L 668.898701 227.079486 
L 670.993334 219.688369 
L 673.290673 210.725825 
L 675.858287 199.760924 
L 678.831314 186.035927 
L 682.817873 166.476468 
L 690.453147 128.836129 
L 693.291036 116.084445 
L 695.655944 106.450761 
L 697.683008 99.091527 
L 699.507365 93.286614 
L 701.129016 88.844444 
L 702.61553 85.40809 
L 703.966906 82.837648 
L 705.183144 80.990013 
L 706.264245 79.726044 
L 707.277777 78.868606 
L 708.22374 78.356064 
L 709.102134 78.129151 
L 709.980529 78.141273 
L 710.858923 78.390742 
L 711.737317 78.874958 
L 712.68328 79.654906 
L 713.696812 80.78185 
L 714.845482 82.413016 
L 716.06172 84.534647 
L 717.413096 87.344168 
L 718.967178 91.124241 
L 720.656398 95.839514 
L 722.615893 102.002804 
L 724.913232 110.010692 
L 727.81869 121.016119 
L 733.291763 142.869908 
L 737.278322 158.306909 
L 740.048642 168.19187 
L 742.41355 175.853512 
L 744.575752 182.123488 
L 746.535247 187.146797 
L 748.359604 191.240885 
L 750.116393 194.653999 
L 751.805613 197.463681 
L 753.494832 199.840664 
L 755.116484 201.748827 
L 756.738135 203.314213 
L 758.224648 204.445768 
L 759.576024 205.207277 
L 760.9274 205.715771 
L 762.413913 206.032656 
L 763.765289 206.172936 
L 763.765289 206.172936 
" style="fill:none;stroke:#1f77b4;stroke-linecap:square;stroke-width:1.5;"/>
   </g>
   <g id="patch_8">
    <path d="M 473.236364 266.792727 
L 473.236364 69.12 
" style="fill:none;stroke:#000000;stroke-linecap:square;stroke-linejoin:miter;stroke-width:0.8;"/>
   </g>
   <g id="patch_9">
    <path d="M 777.6 266.792727 
L 777.6 69.12 
" style="fill:none;stroke:#000000;stroke-linecap:square;stroke-linejoin:miter;stroke-width:0.8;"/>
   </g>
   <g id="patch_10">
    <path d="M 473.236364 266.792727 
L 777.6 266.792727 
" style="fill:none;stroke:#000000;stroke-linecap:square;stroke-linejoin:miter;stroke-width:0.8;"/>
   </g>
   <g id="patch_11">
    <path d="M 473.236364 69.12 
L 777.6 69.12 
" style="fill:none;stroke:#000000;stroke-linecap:square;stroke-linejoin:miter;stroke-width:0.8;"/>
   </g>
   <g id="text_30">
    <!-- phase response curve -->
    <g transform="translate(559.437869 63.12)scale(0.12 -0.12)">
     <defs>
      <path d="M 54.890625 33.015625 
L 54.890625 0 
L 45.90625 0 
L 45.90625 32.71875 
Q 45.90625 40.484375 42.875 44.328125 
Q 39.84375 48.1875 33.796875 48.1875 
Q 26.515625 48.1875 22.3125 43.546875 
Q 18.109375 38.921875 18.109375 30.90625 
L 18.109375 0 
L 9.078125 0 
L 9.078125 75.984375 
L 18.109375 75.984375 
L 18.109375 46.1875 
Q 21.34375 51.125 25.703125 53.5625 
Q 30.078125 56 35.796875 56 
Q 45.21875 56 50.046875 50.171875 
Q 54.890625 44.34375 54.890625 33.015625 
z
" id="DejaVuSans-104"/>
      <path d="M 34.28125 27.484375 
Q 23.390625 27.484375 19.1875 25 
Q 14.984375 22.515625 14.984375 16.5 
Q 14.984375 11.71875 18.140625 8.90625 
Q 21.296875 6.109375 26.703125 6.109375 
Q 34.1875 6.109375 38.703125 11.40625 
Q 43.21875 16.703125 43.21875 25.484375 
L 43.21875 27.484375 
z
M 52.203125 31.203125 
L 52.203125 0 
L 43.21875 0 
L 43.21875 8.296875 
Q 40.140625 3.328125 35.546875 0.953125 
Q 30.953125 -1.421875 24.3125 -1.421875 
Q 15.921875 -1.421875 10.953125 3.296875 
Q 6 8.015625 6 15.921875 
Q 6 25.140625 12.171875 29.828125 
Q 18.359375 34.515625 30.609375 34.515625 
L 43.21875 34.515625 
L 43.21875 35.40625 
Q 43.21875 41.609375 39.140625 45 
Q 35.0625 48.390625 27.6875 48.390625 
Q 23 48.390625 18.546875 47.265625 
Q 14.109375 46.140625 10.015625 43.890625 
L 10.015625 52.203125 
Q 14.9375 54.109375 19.578125 55.046875 
Q 24.21875 56 28.609375 56 
Q 40.484375 56 46.34375 49.84375 
Q 52.203125 43.703125 52.203125 31.203125 
z
" id="DejaVuSans-97"/>
      <path d="M 44.28125 53.078125 
L 44.28125 44.578125 
Q 40.484375 46.53125 36.375 47.5 
Q 32.28125 48.484375 27.875 48.484375 
Q 21.1875 48.484375 17.84375 46.4375 
Q 14.5 44.390625 14.5 40.28125 
Q 14.5 37.15625 16.890625 35.375 
Q 19.28125 33.59375 26.515625 31.984375 
L 29.59375 31.296875 
Q 39.15625 29.25 43.1875 25.515625 
Q 47.21875 21.78125 47.21875 15.09375 
Q 47.21875 7.46875 41.1875 3.015625 
Q 35.15625 -1.421875 24.609375 -1.421875 
Q 20.21875 -1.421875 15.453125 -0.5625 
Q 10.6875 0.296875 5.421875 2 
L 5.421875 11.28125 
Q 10.40625 8.6875 15.234375 7.390625 
Q 20.0625 6.109375 24.8125 6.109375 
Q 31.15625 6.109375 34.5625 8.28125 
Q 37.984375 10.453125 37.984375 14.40625 
Q 37.984375 18.0625 35.515625 20.015625 
Q 33.0625 21.96875 24.703125 23.78125 
L 21.578125 24.515625 
Q 13.234375 26.265625 9.515625 29.90625 
Q 5.8125 33.546875 5.8125 39.890625 
Q 5.8125 47.609375 11.28125 51.796875 
Q 16.75 56 26.8125 56 
Q 31.78125 56 36.171875 55.265625 
Q 40.578125 54.546875 44.28125 53.078125 
z
" id="DejaVuSans-115"/>
      <path d="M 54.890625 33.015625 
L 54.890625 0 
L 45.90625 0 
L 45.90625 32.71875 
Q 45.90625 40.484375 42.875 44.328125 
Q 39.84375 48.1875 33.796875 48.1875 
Q 26.515625 48.1875 22.3125 43.546875 
Q 18.109375 38.921875 18.109375 30.90625 
L 18.109375 0 
L 9.078125 0 
L 9.078125 54.6875 
L 18.109375 54.6875 
L 18.109375 46.1875 
Q 21.34375 51.125 25.703125 53.5625 
Q 30.078125 56 35.796875 56 
Q 45.21875 56 50.046875 50.171875 
Q 54.890625 44.34375 54.890625 33.015625 
z
" id="DejaVuSans-110"/>
      <path d="M 8.5 21.578125 
L 8.5 54.6875 
L 17.484375 54.6875 
L 17.484375 21.921875 
Q 17.484375 14.15625 20.5 10.265625 
Q 23.53125 6.390625 29.59375 6.390625 
Q 36.859375 6.390625 41.078125 11.03125 
Q 45.3125 15.671875 45.3125 23.6875 
L 45.3125 54.6875 
L 54.296875 54.6875 
L 54.296875 0 
L 45.3125 0 
L 45.3125 8.40625 
Q 42.046875 3.421875 37.71875 1 
Q 33.40625 -1.421875 27.6875 -1.421875 
Q 18.265625 -1.421875 13.375 4.4375 
Q 8.5 10.296875 8.5 21.578125 
z
M 31.109375 56 
z
" id="DejaVuSans-117"/>
      <path d="M 2.984375 54.6875 
L 12.5 54.6875 
L 29.59375 8.796875 
L 46.6875 54.6875 
L 56.203125 54.6875 
L 35.6875 0 
L 23.484375 0 
z
" id="DejaVuSans-118"/>
     </defs>
     <use xlink:href="#DejaVuSans-112"/>
     <use x="63.476562" xlink:href="#DejaVuSans-104"/>
     <use x="126.855469" xlink:href="#DejaVuSans-97"/>
     <use x="188.134766" xlink:href="#DejaVuSans-115"/>
     <use x="240.234375" xlink:href="#DejaVuSans-101"/>
     <use x="301.757812" xlink:href="#DejaVuSans-32"/>
     <use x="333.544922" xlink:href="#DejaVuSans-114"/>
     <use x="372.408203" xlink:href="#DejaVuSans-101"/>
     <use x="433.931641" xlink:href="#DejaVuSans-115"/>
     <use x="486.03125" xlink:href="#DejaVuSans-112"/>
     <use x="549.507812" xlink:href="#DejaVuSans-111"/>
     <use x="610.689453" xlink:href="#DejaVuSans-110"/>
     <use x="674.068359" xlink:href="#DejaVuSans-115"/>
     <use x="726.167969" xlink:href="#DejaVuSans-101"/>
     <use x="787.691406" xlink:href="#DejaVuSans-32"/>
     <use x="819.478516" xlink:href="#DejaVuSans-99"/>
     <use x="874.458984" xlink:href="#DejaVuSans-117"/>
     <use x="937.837891" xlink:href="#DejaVuSans-114"/>
     <use x="978.951172" xlink:href="#DejaVuSans-118"/>
     <use x="1038.130859" xlink:href="#DejaVuSans-101"/>
    </g>
   </g>
   <g id="legend_1">
    <g id="patch_12">
     <path d="M 726.6 91.798125 
L 770.6 91.798125 
Q 772.6 91.798125 772.6 89.798125 
L 772.6 76.12 
Q 772.6 74.12 770.6 74.12 
L 726.6 74.12 
Q 724.6 74.12 724.6 76.12 
L 724.6 89.798125 
Q 724.6 91.798125 726.6 91.798125 
z
" style="fill:#ffffff;opacity:0.8;stroke:#cccccc;stroke-linejoin:miter;"/>
    </g>
    <g id="line2d_27">
     <path d="M 728.6 82.218438 
L 748.6 82.218438 
" style="fill:none;stroke:#1f77b4;stroke-linecap:square;stroke-width:1.5;"/>
    </g>
    <g id="line2d_28"/>
    <g id="text_31">
     <!-- $Z_V$ -->
     <g transform="translate(756.6 85.718438)scale(0.1 -0.1)">
      <use transform="translate(0 0.09375)" xlink:href="#DejaVuSans-Oblique-90"/>
      <use transform="translate(68.505859 -16.3125)scale(0.7)" xlink:href="#DejaVuSans-Oblique-86"/>
     </g>
    </g>
   </g>
  </g>
  <g id="axes_3">
   <g id="patch_13">
    <path d="M 108 504 
L 412.363636 504 
L 412.363636 306.327273 
L 108 306.327273 
z
" style="fill:#ffffff;"/>
   </g>
   <g id="matplotlib.axis_5">
    <g id="xtick_13">
     <g id="line2d_29">
      <g>
       <use style="stroke:#000000;stroke-width:0.8;" x="121.834711" xlink:href="#md6b1878a59" y="504"/>
      </g>
     </g>
     <g id="text_32">
      <!-- 0 -->
      <g transform="translate(118.653461 518.598437)scale(0.1 -0.1)">
       <use xlink:href="#DejaVuSans-48"/>
      </g>
     </g>
    </g>
    <g id="xtick_14">
     <g id="line2d_30">
      <g>
       <use style="stroke:#000000;stroke-width:0.8;" x="176.422933" xlink:href="#md6b1878a59" y="504"/>
      </g>
     </g>
     <g id="text_33">
      <!-- 2 -->
      <g transform="translate(173.241683 518.598437)scale(0.1 -0.1)">
       <use xlink:href="#DejaVuSans-50"/>
      </g>
     </g>
    </g>
    <g id="xtick_15">
     <g id="line2d_31">
      <g>
       <use style="stroke:#000000;stroke-width:0.8;" x="231.011155" xlink:href="#md6b1878a59" y="504"/>
      </g>
     </g>
     <g id="text_34">
      <!-- 4 -->
      <g transform="translate(227.829905 518.598437)scale(0.1 -0.1)">
       <use xlink:href="#DejaVuSans-52"/>
      </g>
     </g>
    </g>
    <g id="xtick_16">
     <g id="line2d_32">
      <g>
       <use style="stroke:#000000;stroke-width:0.8;" x="285.599377" xlink:href="#md6b1878a59" y="504"/>
      </g>
     </g>
     <g id="text_35">
      <!-- 6 -->
      <g transform="translate(282.418127 518.598437)scale(0.1 -0.1)">
       <use xlink:href="#DejaVuSans-54"/>
      </g>
     </g>
    </g>
    <g id="xtick_17">
     <g id="line2d_33">
      <g>
       <use style="stroke:#000000;stroke-width:0.8;" x="340.187599" xlink:href="#md6b1878a59" y="504"/>
      </g>
     </g>
     <g id="text_36">
      <!-- 8 -->
      <g transform="translate(337.006349 518.598437)scale(0.1 -0.1)">
       <use xlink:href="#DejaVuSans-56"/>
      </g>
     </g>
    </g>
    <g id="xtick_18">
     <g id="line2d_34">
      <g>
       <use style="stroke:#000000;stroke-width:0.8;" x="394.775821" xlink:href="#md6b1878a59" y="504"/>
      </g>
     </g>
     <g id="text_37">
      <!-- 10 -->
      <g transform="translate(388.413321 518.598437)scale(0.1 -0.1)">
       <use xlink:href="#DejaVuSans-49"/>
       <use x="63.623047" xlink:href="#DejaVuSans-48"/>
      </g>
     </g>
    </g>
    <g id="text_38">
     <!-- t -->
     <g transform="translate(258.221662 532.276562)scale(0.1 -0.1)">
      <use xlink:href="#DejaVuSans-116"/>
     </g>
    </g>
   </g>
   <g id="matplotlib.axis_6">
    <g id="ytick_13">
     <g id="line2d_35">
      <g>
       <use style="stroke:#000000;stroke-width:0.8;" x="108" xlink:href="#m564167a2bf" y="499.58546"/>
      </g>
     </g>
     <g id="text_39">
      <!-- 0.0 -->
      <g transform="translate(85.096875 503.384679)scale(0.1 -0.1)">
       <use xlink:href="#DejaVuSans-48"/>
       <use x="63.623047" xlink:href="#DejaVuSans-46"/>
       <use x="95.410156" xlink:href="#DejaVuSans-48"/>
      </g>
     </g>
    </g>
    <g id="ytick_14">
     <g id="line2d_36">
      <g>
       <use style="stroke:#000000;stroke-width:0.8;" x="108" xlink:href="#m564167a2bf" y="461.902891"/>
      </g>
     </g>
     <g id="text_40">
      <!-- 0.2 -->
      <g transform="translate(85.096875 465.702109)scale(0.1 -0.1)">
       <use xlink:href="#DejaVuSans-48"/>
       <use x="63.623047" xlink:href="#DejaVuSans-46"/>
       <use x="95.410156" xlink:href="#DejaVuSans-50"/>
      </g>
     </g>
    </g>
    <g id="ytick_15">
     <g id="line2d_37">
      <g>
       <use style="stroke:#000000;stroke-width:0.8;" x="108" xlink:href="#m564167a2bf" y="424.220321"/>
      </g>
     </g>
     <g id="text_41">
      <!-- 0.4 -->
      <g transform="translate(85.096875 428.019539)scale(0.1 -0.1)">
       <use xlink:href="#DejaVuSans-48"/>
       <use x="63.623047" xlink:href="#DejaVuSans-46"/>
       <use x="95.410156" xlink:href="#DejaVuSans-52"/>
      </g>
     </g>
    </g>
    <g id="ytick_16">
     <g id="line2d_38">
      <g>
       <use style="stroke:#000000;stroke-width:0.8;" x="108" xlink:href="#m564167a2bf" y="386.537751"/>
      </g>
     </g>
     <g id="text_42">
      <!-- 0.6 -->
      <g transform="translate(85.096875 390.33697)scale(0.1 -0.1)">
       <use xlink:href="#DejaVuSans-48"/>
       <use x="63.623047" xlink:href="#DejaVuSans-46"/>
       <use x="95.410156" xlink:href="#DejaVuSans-54"/>
      </g>
     </g>
    </g>
    <g id="ytick_17">
     <g id="line2d_39">
      <g>
       <use style="stroke:#000000;stroke-width:0.8;" x="108" xlink:href="#m564167a2bf" y="348.855181"/>
      </g>
     </g>
     <g id="text_43">
      <!-- 0.8 -->
      <g transform="translate(85.096875 352.6544)scale(0.1 -0.1)">
       <use xlink:href="#DejaVuSans-48"/>
       <use x="63.623047" xlink:href="#DejaVuSans-46"/>
       <use x="95.410156" xlink:href="#DejaVuSans-56"/>
      </g>
     </g>
    </g>
    <g id="ytick_18">
     <g id="line2d_40">
      <g>
       <use style="stroke:#000000;stroke-width:0.8;" x="108" xlink:href="#m564167a2bf" y="311.172611"/>
      </g>
     </g>
     <g id="text_44">
      <!-- 1.0 -->
      <g transform="translate(85.096875 314.97183)scale(0.1 -0.1)">
       <use xlink:href="#DejaVuSans-49"/>
       <use x="63.623047" xlink:href="#DejaVuSans-46"/>
       <use x="95.410156" xlink:href="#DejaVuSans-48"/>
      </g>
     </g>
    </g>
    <g id="text_45">
     <!-- m,h,n -->
     <g transform="translate(79.017187 419.549574)rotate(-90)scale(0.1 -0.1)">
      <defs>
       <path d="M 52 44.1875 
Q 55.375 50.25 60.0625 53.125 
Q 64.75 56 71.09375 56 
Q 79.640625 56 84.28125 50.015625 
Q 88.921875 44.046875 88.921875 33.015625 
L 88.921875 0 
L 79.890625 0 
L 79.890625 32.71875 
Q 79.890625 40.578125 77.09375 44.375 
Q 74.3125 48.1875 68.609375 48.1875 
Q 61.625 48.1875 57.5625 43.546875 
Q 53.515625 38.921875 53.515625 30.90625 
L 53.515625 0 
L 44.484375 0 
L 44.484375 32.71875 
Q 44.484375 40.625 41.703125 44.40625 
Q 38.921875 48.1875 33.109375 48.1875 
Q 26.21875 48.1875 22.15625 43.53125 
Q 18.109375 38.875 18.109375 30.90625 
L 18.109375 0 
L 9.078125 0 
L 9.078125 54.6875 
L 18.109375 54.6875 
L 18.109375 46.1875 
Q 21.1875 51.21875 25.484375 53.609375 
Q 29.78125 56 35.6875 56 
Q 41.65625 56 45.828125 52.96875 
Q 50 49.953125 52 44.1875 
z
" id="DejaVuSans-109"/>
       <path d="M 11.71875 12.40625 
L 22.015625 12.40625 
L 22.015625 4 
L 14.015625 -11.625 
L 7.71875 -11.625 
L 11.71875 4 
z
" id="DejaVuSans-44"/>
      </defs>
      <use xlink:href="#DejaVuSans-109"/>
      <use x="97.412109" xlink:href="#DejaVuSans-44"/>
      <use x="129.199219" xlink:href="#DejaVuSans-104"/>
      <use x="192.578125" xlink:href="#DejaVuSans-44"/>
      <use x="224.365234" xlink:href="#DejaVuSans-110"/>
     </g>
    </g>
   </g>
   <g id="line2d_41">
    <path clip-path="url(#p7dd6e4f653)" d="M 121.834711 374.77875 
L 124.267187 353.874505 
L 125.618563 344.128804 
L 126.834802 336.940395 
L 127.915902 331.794896 
L 128.997003 327.694053 
L 130.078104 324.476124 
L 131.091636 322.116507 
L 132.172736 320.162929 
L 133.253837 318.672296 
L 134.334938 317.547532 
L 135.483607 316.669251 
L 136.699846 316.021034 
L 137.983653 315.587376 
L 139.402597 315.350405 
L 140.889111 315.330063 
L 142.443193 315.527211 
L 144.064844 315.95459 
L 145.686495 316.606207 
L 147.308146 317.491703 
L 148.929797 318.630082 
L 150.551449 320.048026 
L 152.105531 321.699933 
L 153.659613 323.673429 
L 155.213695 326.007513 
L 156.767778 328.745827 
L 158.32186 331.936963 
L 159.875942 335.635151 
L 161.430025 339.901332 
L 162.984107 344.804538 
L 164.605758 350.685065 
L 166.227409 357.445343 
L 167.84906 365.195317 
L 169.470711 374.044947 
L 171.159931 384.526539 
L 172.984288 397.31507 
L 175.14649 414.164256 
L 180.011443 452.72919 
L 181.497957 462.448324 
L 182.849332 469.870455 
L 184.065571 475.377665 
L 185.21424 479.628659 
L 186.36291 483.063797 
L 187.511579 485.803517 
L 188.660249 487.966682 
L 189.808918 489.661304 
L 190.957588 490.980559 
L 192.173826 492.054335 
L 193.525202 492.945975 
L 195.011716 493.651378 
L 196.700935 494.199396 
L 198.727999 494.611565 
L 201.228045 494.882875 
L 204.606484 495.009685 
L 209.539006 494.952667 
L 217.714831 494.612254 
L 230.215058 493.860724 
L 243.323404 492.854215 
L 255.688493 491.684557 
L 267.580601 490.338093 
L 279.202434 488.799458 
L 290.689129 487.054903 
L 301.973118 485.117912 
L 312.851694 483.028026 
L 322.987013 480.857657 
L 331.973663 478.7109 
L 339.744074 476.632155 
L 346.365816 474.637561 
L 352.041595 472.701191 
L 356.906548 470.810763 
L 361.095813 468.948518 
L 364.744528 467.086509 
L 367.920262 465.221791 
L 370.758151 463.300362 
L 373.258196 461.345921 
L 375.555535 459.268454 
L 377.650168 457.070493 
L 379.542094 454.76513 
L 381.298883 452.276981 
L 382.920534 449.603409 
L 384.474616 446.611857 
L 385.96113 443.254158 
L 387.380074 439.479108 
L 388.73145 435.235655 
L 390.015257 430.478538 
L 391.299065 424.856922 
L 392.582872 418.200623 
L 393.866679 410.35039 
L 395.218055 400.698046 
L 396.839706 387.380744 
L 398.528926 372.324278 
L 398.528926 372.324278 
" style="fill:none;stroke:#1f77b4;stroke-linecap:square;stroke-width:1.5;"/>
   </g>
   <g id="line2d_42">
    <path clip-path="url(#p7dd6e4f653)" d="M 121.834711 459.610059 
L 125.21315 464.169317 
L 128.118609 467.710745 
L 131.024067 470.898497 
L 133.929525 473.758248 
L 136.902552 476.372255 
L 139.875579 478.694113 
L 142.916175 480.785864 
L 145.956771 482.605235 
L 148.929797 484.128597 
L 151.902824 485.402691 
L 154.808283 486.408089 
L 157.713741 487.177394 
L 160.55163 487.702551 
L 163.38952 488.00576 
L 166.227409 488.086055 
L 168.99773 487.942383 
L 171.632913 487.58694 
L 174.132958 487.03036 
L 176.565435 486.260947 
L 179.06548 485.228081 
L 181.903369 483.79845 
L 185.889928 481.511865 
L 201.025338 472.638042 
L 208.255199 468.742574 
L 215.417492 465.136619 
L 222.579784 461.779468 
L 229.742076 458.666527 
L 236.971937 455.766843 
L 244.201798 453.105672 
L 251.499228 450.656063 
L 258.864227 448.41901 
L 266.296794 446.395269 
L 273.79693 444.585401 
L 281.364635 442.989837 
L 288.999909 441.608973 
L 296.702752 440.44334 
L 304.473163 439.493864 
L 312.243575 438.767636 
L 320.081555 438.258658 
L 327.851966 437.975569 
L 335.554809 437.916182 
L 343.054945 438.078886 
L 350.217237 438.453346 
L 356.906548 439.021196 
L 362.98774 439.755059 
L 368.393243 440.626725 
L 373.05549 441.59887 
L 376.97448 442.634342 
L 380.285351 443.729178 
L 383.12324 444.89695 
L 385.555717 446.138116 
L 387.65035 447.455621 
L 389.542276 448.912774 
L 391.299065 450.554175 
L 393.055853 452.513053 
L 395.082917 455.137776 
L 398.528926 459.993149 
L 398.528926 459.993149 
" style="fill:none;stroke:#ff7f0e;stroke-linecap:square;stroke-width:1.5;"/>
   </g>
   <g id="line2d_43">
    <path clip-path="url(#p7dd6e4f653)" d="M 121.834711 397.984269 
L 123.591499 395.048934 
L 126.159114 390.253727 
L 130.145673 382.855929 
L 132.578149 378.837475 
L 134.807919 375.574312 
L 136.970121 372.7935 
L 139.132322 370.371424 
L 141.294524 368.282743 
L 143.456725 366.500346 
L 145.618927 364.997758 
L 147.848697 363.715173 
L 150.146036 362.651644 
L 152.510944 361.805532 
L 154.94342 361.175124 
L 157.443466 360.759331 
L 160.01108 360.558642 
L 162.646263 360.576439 
L 165.349015 360.82061 
L 168.051766 361.290271 
L 170.754518 361.986915 
L 173.45727 362.911142 
L 176.362728 364.145267 
L 179.741168 365.834299 
L 185.079103 368.792962 
L 196.227954 374.980879 
L 203.930796 378.977344 
L 211.56607 382.687088 
L 219.201344 386.149186 
L 226.836618 389.368201 
L 234.539461 392.374082 
L 242.242303 395.141949 
L 250.012715 397.697745 
L 257.850695 400.040383 
L 265.756244 402.169328 
L 273.729362 404.084728 
L 281.770048 405.787506 
L 289.945872 407.290847 
L 298.256834 408.591609 
L 306.702933 409.687237 
L 315.28417 410.575209 
L 324.000545 411.252074 
L 332.716919 411.706549 
L 341.365725 411.937078 
L 349.811825 411.941435 
L 357.717374 411.727336 
L 364.879666 411.31617 
L 371.095995 410.741651 
L 376.231223 410.05263 
L 380.488057 409.263047 
L 383.934066 408.402853 
L 386.704387 407.492722 
L 389.069294 406.484525 
L 391.028789 405.414585 
L 392.785578 404.201848 
L 394.33966 402.862723 
L 395.826174 401.287529 
L 397.312687 399.377719 
L 398.528926 397.55566 
L 398.528926 397.55566 
" style="fill:none;stroke:#2ca02c;stroke-linecap:square;stroke-width:1.5;"/>
   </g>
   <g id="patch_14">
    <path d="M 108 504 
L 108 306.327273 
" style="fill:none;stroke:#000000;stroke-linecap:square;stroke-linejoin:miter;stroke-width:0.8;"/>
   </g>
   <g id="patch_15">
    <path d="M 412.363636 504 
L 412.363636 306.327273 
" style="fill:none;stroke:#000000;stroke-linecap:square;stroke-linejoin:miter;stroke-width:0.8;"/>
   </g>
   <g id="patch_16">
    <path d="M 108 504 
L 412.363636 504 
" style="fill:none;stroke:#000000;stroke-linecap:square;stroke-linejoin:miter;stroke-width:0.8;"/>
   </g>
   <g id="patch_17">
    <path d="M 108 306.327273 
L 412.363636 306.327273 
" style="fill:none;stroke:#000000;stroke-linecap:square;stroke-linejoin:miter;stroke-width:0.8;"/>
   </g>
  </g>
  <g id="axes_4">
   <g id="patch_18">
    <path d="M 473.236364 504 
L 777.6 504 
L 777.6 306.327273 
L 473.236364 306.327273 
z
" style="fill:#ffffff;"/>
   </g>
   <g id="matplotlib.axis_7">
    <g id="xtick_19">
     <g id="line2d_44">
      <g>
       <use style="stroke:#000000;stroke-width:0.8;" x="487.071074" xlink:href="#md6b1878a59" y="504"/>
      </g>
     </g>
     <g id="text_46">
      <!-- 0 -->
      <g transform="translate(483.889824 518.598437)scale(0.1 -0.1)">
       <use xlink:href="#DejaVuSans-48"/>
      </g>
     </g>
    </g>
    <g id="xtick_20">
     <g id="line2d_45">
      <g>
       <use style="stroke:#000000;stroke-width:0.8;" x="541.659296" xlink:href="#md6b1878a59" y="504"/>
      </g>
     </g>
     <g id="text_47">
      <!-- 2 -->
      <g transform="translate(538.478046 518.598437)scale(0.1 -0.1)">
       <use xlink:href="#DejaVuSans-50"/>
      </g>
     </g>
    </g>
    <g id="xtick_21">
     <g id="line2d_46">
      <g>
       <use style="stroke:#000000;stroke-width:0.8;" x="596.247519" xlink:href="#md6b1878a59" y="504"/>
      </g>
     </g>
     <g id="text_48">
      <!-- 4 -->
      <g transform="translate(593.066269 518.598437)scale(0.1 -0.1)">
       <use xlink:href="#DejaVuSans-52"/>
      </g>
     </g>
    </g>
    <g id="xtick_22">
     <g id="line2d_47">
      <g>
       <use style="stroke:#000000;stroke-width:0.8;" x="650.835741" xlink:href="#md6b1878a59" y="504"/>
      </g>
     </g>
     <g id="text_49">
      <!-- 6 -->
      <g transform="translate(647.654491 518.598437)scale(0.1 -0.1)">
       <use xlink:href="#DejaVuSans-54"/>
      </g>
     </g>
    </g>
    <g id="xtick_23">
     <g id="line2d_48">
      <g>
       <use style="stroke:#000000;stroke-width:0.8;" x="705.423963" xlink:href="#md6b1878a59" y="504"/>
      </g>
     </g>
     <g id="text_50">
      <!-- 8 -->
      <g transform="translate(702.242713 518.598437)scale(0.1 -0.1)">
       <use xlink:href="#DejaVuSans-56"/>
      </g>
     </g>
    </g>
    <g id="xtick_24">
     <g id="line2d_49">
      <g>
       <use style="stroke:#000000;stroke-width:0.8;" x="760.012185" xlink:href="#md6b1878a59" y="504"/>
      </g>
     </g>
     <g id="text_51">
      <!-- 10 -->
      <g transform="translate(753.649685 518.598437)scale(0.1 -0.1)">
       <use xlink:href="#DejaVuSans-49"/>
       <use x="63.623047" xlink:href="#DejaVuSans-48"/>
      </g>
     </g>
    </g>
    <g id="text_52">
     <!-- t -->
     <g transform="translate(623.458026 532.276562)scale(0.1 -0.1)">
      <use xlink:href="#DejaVuSans-116"/>
     </g>
    </g>
   </g>
   <g id="matplotlib.axis_8">
    <g id="ytick_19">
     <g id="line2d_50">
      <g>
       <use style="stroke:#000000;stroke-width:0.8;" x="473.236364" xlink:href="#m564167a2bf" y="471.77668"/>
      </g>
     </g>
     <g id="text_53">
      <!-- −30 -->
      <g transform="translate(445.131676 475.575899)scale(0.1 -0.1)">
       <defs>
        <path d="M 40.578125 39.3125 
Q 47.65625 37.796875 51.625 33 
Q 55.609375 28.21875 55.609375 21.1875 
Q 55.609375 10.40625 48.1875 4.484375 
Q 40.765625 -1.421875 27.09375 -1.421875 
Q 22.515625 -1.421875 17.65625 -0.515625 
Q 12.796875 0.390625 7.625 2.203125 
L 7.625 11.71875 
Q 11.71875 9.328125 16.59375 8.109375 
Q 21.484375 6.890625 26.8125 6.890625 
Q 36.078125 6.890625 40.9375 10.546875 
Q 45.796875 14.203125 45.796875 21.1875 
Q 45.796875 27.640625 41.28125 31.265625 
Q 36.765625 34.90625 28.71875 34.90625 
L 20.21875 34.90625 
L 20.21875 43.015625 
L 29.109375 43.015625 
Q 36.375 43.015625 40.234375 45.921875 
Q 44.09375 48.828125 44.09375 54.296875 
Q 44.09375 59.90625 40.109375 62.90625 
Q 36.140625 65.921875 28.71875 65.921875 
Q 24.65625 65.921875 20.015625 65.03125 
Q 15.375 64.15625 9.8125 62.3125 
L 9.8125 71.09375 
Q 15.4375 72.65625 20.34375 73.4375 
Q 25.25 74.21875 29.59375 74.21875 
Q 40.828125 74.21875 47.359375 69.109375 
Q 53.90625 64.015625 53.90625 55.328125 
Q 53.90625 49.265625 50.4375 45.09375 
Q 46.96875 40.921875 40.578125 39.3125 
z
" id="DejaVuSans-51"/>
       </defs>
       <use xlink:href="#DejaVuSans-8722"/>
       <use x="83.789062" xlink:href="#DejaVuSans-51"/>
       <use x="147.412109" xlink:href="#DejaVuSans-48"/>
      </g>
     </g>
    </g>
    <g id="ytick_20">
     <g id="line2d_51">
      <g>
       <use style="stroke:#000000;stroke-width:0.8;" x="473.236364" xlink:href="#m564167a2bf" y="429.281757"/>
      </g>
     </g>
     <g id="text_54">
      <!-- −20 -->
      <g transform="translate(445.131676 433.080976)scale(0.1 -0.1)">
       <use xlink:href="#DejaVuSans-8722"/>
       <use x="83.789062" xlink:href="#DejaVuSans-50"/>
       <use x="147.412109" xlink:href="#DejaVuSans-48"/>
      </g>
     </g>
    </g>
    <g id="ytick_21">
     <g id="line2d_52">
      <g>
       <use style="stroke:#000000;stroke-width:0.8;" x="473.236364" xlink:href="#m564167a2bf" y="386.786834"/>
      </g>
     </g>
     <g id="text_55">
      <!-- −10 -->
      <g transform="translate(445.131676 390.586053)scale(0.1 -0.1)">
       <use xlink:href="#DejaVuSans-8722"/>
       <use x="83.789062" xlink:href="#DejaVuSans-49"/>
       <use x="147.412109" xlink:href="#DejaVuSans-48"/>
      </g>
     </g>
    </g>
    <g id="ytick_22">
     <g id="line2d_53">
      <g>
       <use style="stroke:#000000;stroke-width:0.8;" x="473.236364" xlink:href="#m564167a2bf" y="344.291911"/>
      </g>
     </g>
     <g id="text_56">
      <!-- 0 -->
      <g transform="translate(459.873864 348.09113)scale(0.1 -0.1)">
       <use xlink:href="#DejaVuSans-48"/>
      </g>
     </g>
    </g>
    <g id="text_57">
     <!-- $Z_m,Z_h,Z_n$ -->
     <g transform="translate(439.051989 428.863636)rotate(-90)scale(0.1 -0.1)">
      <defs>
       <path d="M 89.796875 33.015625 
L 83.40625 0 
L 74.421875 0 
L 80.71875 32.71875 
Q 81.109375 34.8125 81.296875 36.328125 
Q 81.5 37.84375 81.5 38.921875 
Q 81.5 43.3125 79.046875 45.75 
Q 76.609375 48.1875 72.21875 48.1875 
Q 65.671875 48.1875 60.546875 43.28125 
Q 55.421875 38.375 53.90625 30.515625 
L 47.90625 0 
L 38.921875 0 
L 45.3125 32.71875 
Q 45.703125 34.515625 45.890625 36.046875 
Q 46.09375 37.59375 46.09375 38.8125 
Q 46.09375 43.265625 43.65625 45.71875 
Q 41.21875 48.1875 36.921875 48.1875 
Q 30.28125 48.1875 25.140625 43.28125 
Q 20.015625 38.375 18.5 30.515625 
L 12.5 0 
L 3.515625 0 
L 14.203125 54.6875 
L 23.1875 54.6875 
L 21.484375 46.1875 
Q 25.140625 50.984375 30.046875 53.484375 
Q 34.96875 56 40.578125 56 
Q 46.53125 56 50.359375 52.875 
Q 54.203125 49.75 54.984375 44.1875 
Q 59.078125 49.953125 64.46875 52.96875 
Q 69.875 56 75.875 56 
Q 82.90625 56 86.734375 51.953125 
Q 90.578125 47.90625 90.578125 40.484375 
Q 90.578125 38.875 90.375 36.9375 
Q 90.1875 35.015625 89.796875 33.015625 
z
" id="DejaVuSans-Oblique-109"/>
       <path d="M 55.71875 33.015625 
L 49.3125 0 
L 40.28125 0 
L 46.6875 32.671875 
Q 47.125 34.96875 47.359375 36.71875 
Q 47.609375 38.484375 47.609375 39.5 
Q 47.609375 43.609375 45.015625 45.890625 
Q 42.4375 48.1875 37.796875 48.1875 
Q 30.5625 48.1875 25.265625 43.296875 
Q 19.96875 38.421875 18.40625 30.328125 
L 12.5 0 
L 3.515625 0 
L 18.3125 75.984375 
L 27.296875 75.984375 
L 21.484375 46.09375 
Q 24.90625 50.6875 30.21875 53.34375 
Q 35.546875 56 41.40625 56 
Q 48.640625 56 52.609375 52.09375 
Q 56.59375 48.1875 56.59375 41.109375 
Q 56.59375 39.359375 56.375 37.359375 
Q 56.15625 35.359375 55.71875 33.015625 
z
" id="DejaVuSans-Oblique-104"/>
       <path d="M 55.71875 33.015625 
L 49.3125 0 
L 40.28125 0 
L 46.6875 32.671875 
Q 47.125 34.96875 47.359375 36.71875 
Q 47.609375 38.484375 47.609375 39.5 
Q 47.609375 43.609375 45.015625 45.890625 
Q 42.4375 48.1875 37.796875 48.1875 
Q 30.5625 48.1875 25.34375 43.375 
Q 20.125 38.578125 18.5 30.328125 
L 12.5 0 
L 3.515625 0 
L 14.109375 54.6875 
L 23.09375 54.6875 
L 21.296875 46.09375 
Q 25.046875 50.828125 30.3125 53.40625 
Q 35.59375 56 41.40625 56 
Q 48.640625 56 52.609375 52.09375 
Q 56.59375 48.1875 56.59375 41.109375 
Q 56.59375 39.359375 56.375 37.359375 
Q 56.15625 35.359375 55.71875 33.015625 
z
" id="DejaVuSans-Oblique-110"/>
      </defs>
      <use transform="translate(0 0.09375)" xlink:href="#DejaVuSans-Oblique-90"/>
      <use transform="translate(68.505859 -16.3125)scale(0.7)" xlink:href="#DejaVuSans-Oblique-109"/>
      <use transform="translate(139.428711 0.09375)" xlink:href="#DejaVuSans-44"/>
      <use transform="translate(190.698242 0.09375)" xlink:href="#DejaVuSans-Oblique-90"/>
      <use transform="translate(259.204102 -16.3125)scale(0.7)" xlink:href="#DejaVuSans-Oblique-104"/>
      <use transform="translate(306.303711 0.09375)" xlink:href="#DejaVuSans-44"/>
      <use transform="translate(357.573242 0.09375)" xlink:href="#DejaVuSans-Oblique-90"/>
      <use transform="translate(426.079102 -16.3125)scale(0.7)" xlink:href="#DejaVuSans-Oblique-110"/>
     </g>
    </g>
   </g>
   <g id="line2d_54">
    <path clip-path="url(#pe50cbd362f)" d="M 487.071074 344.198788 
L 500.044283 344.722976 
L 503.355154 345.18446 
L 506.463318 345.84553 
L 509.909327 346.817575 
L 516.936482 348.876361 
L 519.233821 349.258984 
L 521.260885 349.370055 
L 523.22038 349.252943 
L 525.247443 348.908794 
L 527.67992 348.255971 
L 532.139461 346.761467 
L 535.585469 345.731356 
L 538.423358 345.117617 
L 541.396385 344.708859 
L 544.977532 344.454974 
L 550.247898 344.331281 
L 564.70762 344.303973 
L 600.654219 344.431921 
L 615.586922 344.696981 
L 627.411461 345.130794 
L 647.276687 345.931925 
L 652.006503 345.840276 
L 655.925493 345.547764 
L 659.371501 345.071904 
L 662.547235 344.411072 
L 665.520262 343.569315 
L 668.42572 342.516655 
L 671.331178 341.222664 
L 674.236636 339.682289 
L 677.277232 337.812733 
L 680.520534 335.551932 
L 684.236818 332.681793 
L 689.574753 328.242069 
L 695.993788 322.954397 
L 699.304659 320.51412 
L 702.07498 318.740823 
L 704.507456 317.441794 
L 706.737226 316.498438 
L 708.831859 315.851246 
L 710.858923 315.461109 
L 712.818418 315.314503 
L 714.710344 315.392639 
L 716.60227 315.687059 
L 718.561766 316.216219 
L 720.588829 316.994921 
L 722.751031 318.069072 
L 725.04837 319.460788 
L 727.615984 321.280752 
L 730.65658 323.723669 
L 734.643139 327.235876 
L 743.900064 335.488934 
L 747.210935 338.079684 
L 750.048824 340.023299 
L 752.548869 341.477674 
L 754.846208 342.562982 
L 756.940841 343.307976 
L 758.900336 343.774029 
L 761.062537 344.054885 
L 763.765289 344.198503 
L 763.765289 344.198503 
" style="fill:none;stroke:#1f77b4;stroke-linecap:square;stroke-width:1.5;"/>
   </g>
   <g id="line2d_55">
    <path clip-path="url(#pe50cbd362f)" d="M 487.071074 355.173501 
L 491.125202 357.047658 
L 494.706348 358.947038 
L 497.94965 360.91974 
L 501.057815 363.073537 
L 504.301117 365.602729 
L 512.54451 372.225749 
L 514.031024 373.025075 
L 515.314831 373.465851 
L 516.395931 373.609529 
L 517.409463 373.520865 
L 518.355426 373.218317 
L 519.30139 372.684366 
L 520.314921 371.840084 
L 521.396022 370.620147 
L 522.544692 368.966234 
L 523.828499 366.709211 
L 525.382581 363.486672 
L 527.477214 358.574526 
L 531.531341 348.999295 
L 533.220561 345.634122 
L 534.707075 343.163309 
L 536.058451 341.343156 
L 537.342258 339.977799 
L 538.626065 338.933242 
L 539.977441 338.12902 
L 541.396385 337.544811 
L 543.085605 337.102538 
L 545.247807 336.788069 
L 548.626246 336.552766 
L 559.707529 336.121363 
L 602.748851 334.403858 
L 629.641231 333.131024 
L 646.465861 332.122226 
L 661.66884 330.97992 
L 678.020489 329.770448 
L 684.507093 329.527213 
L 689.70989 329.55067 
L 694.236999 329.788958 
L 698.426265 330.229603 
L 702.412824 330.871169 
L 706.331814 331.727625 
L 710.250804 332.811231 
L 714.3725 334.186076 
L 718.832041 335.915771 
L 724.034838 338.184055 
L 731.940387 341.910013 
L 741.062174 346.146098 
L 747.008228 348.653648 
L 754.17052 351.408002 
L 762.481482 354.657105 
L 763.765289 355.206763 
L 763.765289 355.206763 
" style="fill:none;stroke:#ff7f0e;stroke-linecap:square;stroke-width:1.5;"/>
   </g>
   <g id="line2d_56">
    <path clip-path="url(#pe50cbd362f)" d="M 487.071074 343.489304 
L 501.125384 342.453387 
L 508.355245 341.886228 
L 511.057997 341.90701 
L 513.152629 342.135192 
L 514.976987 342.548606 
L 516.666207 343.153493 
L 518.287858 343.964857 
L 519.977077 345.068079 
L 521.733866 346.494462 
L 523.693361 348.388165 
L 526.193407 351.143764 
L 532.207029 357.906962 
L 534.369231 359.920889 
L 536.328726 361.448397 
L 538.288221 362.697885 
L 540.382854 363.767078 
L 542.747761 364.720218 
L 545.720788 365.667438 
L 550.180329 366.829025 
L 564.640051 370.472204 
L 571.329362 372.442934 
L 577.410553 374.464444 
L 582.951194 376.536173 
L 588.086423 378.69023 
L 592.816238 380.910806 
L 597.20821 383.212755 
L 601.329906 385.619594 
L 605.248897 388.16569 
L 608.96518 390.847569 
L 612.478758 393.656287 
L 615.857197 396.639087 
L 619.168068 399.860899 
L 622.41137 403.331978 
L 625.587104 407.058085 
L 628.762837 411.129651 
L 631.938571 415.563002 
L 635.181873 420.473265 
L 638.560312 425.997443 
L 642.141459 432.288711 
L 646.128017 439.761951 
L 650.925402 449.255895 
L 662.885079 473.165386 
L 666.060812 478.879815 
L 668.695995 483.179945 
L 670.993334 486.513959 
L 673.020398 489.076483 
L 674.844755 491.038475 
L 676.533975 492.535001 
L 678.088057 493.618525 
L 679.507002 494.347102 
L 680.858378 494.798158 
L 682.142185 494.998543 
L 683.425992 494.969499 
L 684.64223 494.724919 
L 685.926038 494.23297 
L 687.209845 493.497301 
L 688.561221 492.456962 
L 689.980165 491.069739 
L 691.466679 489.293126 
L 693.020761 487.085394 
L 694.709981 484.287114 
L 696.534338 480.812902 
L 698.493833 476.582398 
L 700.656035 471.354266 
L 703.020943 465.026585 
L 705.723694 457.121547 
L 708.899428 447.103803 
L 713.156262 432.874602 
L 722.413187 401.732417 
L 725.791627 391.261416 
L 728.697085 382.953422 
L 731.332268 376.079521 
L 733.764744 370.34814 
L 736.062083 365.503693 
L 738.224285 361.45793 
L 740.318917 358.010784 
L 742.345981 355.105896 
L 744.305476 352.683605 
L 746.264971 350.618294 
L 748.156898 348.938192 
L 750.116393 347.494843 
L 752.075888 346.323565 
L 754.102952 345.367818 
L 756.197584 344.625671 
L 758.359786 344.095035 
L 760.792262 343.734181 
L 763.765289 343.48685 
L 763.765289 343.48685 
" style="fill:none;stroke:#2ca02c;stroke-linecap:square;stroke-width:1.5;"/>
   </g>
   <g id="patch_19">
    <path d="M 473.236364 504 
L 473.236364 306.327273 
" style="fill:none;stroke:#000000;stroke-linecap:square;stroke-linejoin:miter;stroke-width:0.8;"/>
   </g>
   <g id="patch_20">
    <path d="M 777.6 504 
L 777.6 306.327273 
" style="fill:none;stroke:#000000;stroke-linecap:square;stroke-linejoin:miter;stroke-width:0.8;"/>
   </g>
   <g id="patch_21">
    <path d="M 473.236364 504 
L 777.6 504 
" style="fill:none;stroke:#000000;stroke-linecap:square;stroke-linejoin:miter;stroke-width:0.8;"/>
   </g>
   <g id="patch_22">
    <path d="M 473.236364 306.327273 
L 777.6 306.327273 
" style="fill:none;stroke:#000000;stroke-linecap:square;stroke-linejoin:miter;stroke-width:0.8;"/>
   </g>
   <g id="legend_2">
    <g id="patch_23">
     <path d="M 480.236364 499 
L 526.236364 499 
Q 528.236364 499 528.236364 497 
L 528.236364 453.965625 
Q 528.236364 451.965625 526.236364 451.965625 
L 480.236364 451.965625 
Q 478.236364 451.965625 478.236364 453.965625 
L 478.236364 497 
Q 478.236364 499 480.236364 499 
z
" style="fill:#ffffff;opacity:0.8;stroke:#cccccc;stroke-linejoin:miter;"/>
    </g>
    <g id="line2d_57">
     <path d="M 482.236364 460.064062 
L 502.236364 460.064062 
" style="fill:none;stroke:#1f77b4;stroke-linecap:square;stroke-width:1.5;"/>
    </g>
    <g id="line2d_58"/>
    <g id="text_58">
     <!-- $Z_m$ -->
     <g transform="translate(510.236364 463.564062)scale(0.1 -0.1)">
      <use transform="translate(0 0.09375)" xlink:href="#DejaVuSans-Oblique-90"/>
      <use transform="translate(68.505859 -16.3125)scale(0.7)" xlink:href="#DejaVuSans-Oblique-109"/>
     </g>
    </g>
    <g id="line2d_59">
     <path d="M 482.236364 474.742187 
L 502.236364 474.742187 
" style="fill:none;stroke:#ff7f0e;stroke-linecap:square;stroke-width:1.5;"/>
    </g>
    <g id="line2d_60"/>
    <g id="text_59">
     <!-- $Z_h$ -->
     <g transform="translate(510.236364 478.242187)scale(0.1 -0.1)">
      <use transform="translate(0 0.09375)" xlink:href="#DejaVuSans-Oblique-90"/>
      <use transform="translate(68.505859 -16.3125)scale(0.7)" xlink:href="#DejaVuSans-Oblique-104"/>
     </g>
    </g>
    <g id="line2d_61">
     <path d="M 482.236364 489.420312 
L 502.236364 489.420312 
" style="fill:none;stroke:#2ca02c;stroke-linecap:square;stroke-width:1.5;"/>
    </g>
    <g id="line2d_62"/>
    <g id="text_60">
     <!-- $Z_n$ -->
     <g transform="translate(510.236364 492.920312)scale(0.1 -0.1)">
      <use transform="translate(0 0.09375)" xlink:href="#DejaVuSans-Oblique-90"/>
      <use transform="translate(68.505859 -16.3125)scale(0.7)" xlink:href="#DejaVuSans-Oblique-110"/>
     </g>
    </g>
   </g>
  </g>
 </g>
 <defs>
  <clipPath id="pe371ffd9df">
   <rect height="197.672727" width="304.363636" x="108" y="69.12"/>
  </clipPath>
  <clipPath id="pc325a50cae">
   <rect height="197.672727" width="304.363636" x="473.236364" y="69.12"/>
  </clipPath>
  <clipPath id="p7dd6e4f653">
   <rect height="197.672727" width="304.363636" x="108" y="306.327273"/>
  </clipPath>
  <clipPath id="pe50cbd362f">
   <rect height="197.672727" width="304.363636" x="473.236364" y="306.327273"/>
  </clipPath>
 </defs>
</svg>
